<svg width="24" height="24" viewBox="0 0 24 24" fill="none" xmlns="http://www.w3.org/2000/svg">
<path d="M11.4541 2C16.1232 2 19.9081 5.78502 19.9082 10.4541C19.9082 12.6893 19.0386 14.7197 17.6221 16.2314L21.9775 20.5869L20.7822 21.7822L16.3467 17.3467C14.9655 18.3288 13.2779 18.9082 11.4541 18.9082C6.78502 18.9081 3 15.1232 3 10.4541C3.00006 5.78506 6.78506 2.00006 11.4541 2ZM11.4541 3.69043C7.71888 3.69049 4.69049 6.71888 4.69043 10.4541C4.69043 14.1894 7.71885 17.2177 11.4541 17.2178C15.1894 17.2178 18.2178 14.1894 18.2178 10.4541C18.2177 6.71885 15.1894 3.69043 11.4541 3.69043Z" fill="#7D7D7D"/>
</svg>
