<svg width="24" height="24" viewBox="0 0 24 24" fill="none" xmlns="http://www.w3.org/2000/svg">
<path d="M13.0149 5.52863L13.7346 6.22289L13.7348 6.22265L13.0149 5.52863ZM19.9553 5.52863L19.2354 6.22265L19.2379 6.22526L19.9553 5.52863ZM20.0862 5.66339L20.8061 4.96936L20.8036 4.96676L20.0862 5.66339ZM20.0862 12.8636L20.8061 13.5577L20.8061 13.5576L20.0862 12.8636ZM13.6301 19.5599L12.9102 18.8658L12.9102 18.8658L13.6301 19.5599ZM10.8538 19.5599L10.1338 20.2539L10.1338 20.2539L10.8538 19.5599ZM4.39868 12.8636L5.11864 12.1696L5.11863 12.1696L4.39868 12.8636ZM4.39868 5.66339L3.68125 4.96675L3.67873 4.96937L4.39868 5.66339ZM4.52954 5.52863L5.24697 6.22526L5.24949 6.22265L4.52954 5.52863ZM11.47 5.52863L10.75 6.22265L10.7503 6.22289L11.47 5.52863ZM12.2424 6.32941L11.5227 7.02367C11.7112 7.21905 11.971 7.32941 12.2424 7.32941C12.5139 7.32941 12.7737 7.21905 12.9622 7.02367L12.2424 6.32941ZM13.0149 5.52863L13.7348 6.22265C15.2581 4.64253 17.7122 4.64253 19.2354 6.22265L19.9553 5.52863L20.6753 4.8346C18.3655 2.43854 14.6047 2.43854 12.2949 4.8346L13.0149 5.52863ZM19.9553 5.52863L19.2379 6.22526L19.3688 6.36002L20.0862 5.66339L20.8036 4.96676L20.6728 4.83199L19.9553 5.52863ZM20.0862 5.66339L19.3662 6.35742C20.9093 7.95814 20.9093 10.5688 19.3662 12.1696L20.0862 12.8636L20.8061 13.5576C23.096 11.1822 23.096 7.3448 20.8061 4.96937L20.0862 5.66339ZM20.0862 12.8636L19.3663 12.1695L12.9102 18.8658L13.6301 19.5599L14.35 20.254L20.8061 13.5577L20.0862 12.8636ZM13.6301 19.5599L12.9102 18.8658C12.5369 19.2531 11.947 19.2531 11.5737 18.8659L10.8538 19.5599L10.1338 20.2539C11.2937 21.4571 13.1902 21.4571 14.3501 20.2539L13.6301 19.5599ZM10.8538 19.5599L11.5737 18.8659L5.11864 12.1696L4.39868 12.8636L3.67873 13.5576L10.1338 20.2539L10.8538 19.5599ZM4.39868 12.8636L5.11863 12.1696C3.57554 10.5688 3.57554 7.95816 5.11863 6.35742L4.39868 5.66339L3.67873 4.96937C1.38884 7.3448 1.38884 11.1822 3.67873 13.5576L4.39868 12.8636ZM4.39868 5.66339L5.11611 6.36002L5.24697 6.22526L4.52954 5.52863L3.81211 4.83199L3.68125 4.96676L4.39868 5.66339ZM4.52954 5.52863L5.24949 6.22265C6.77271 4.64253 9.2268 4.64253 10.75 6.22265L11.47 5.52863L12.1899 4.8346C9.88015 2.43854 6.11936 2.43854 3.80959 4.8346L4.52954 5.52863ZM11.47 5.52863L10.7503 6.22289L11.5227 7.02367L12.2424 6.32941L12.9622 5.63514L12.1897 4.83436L11.47 5.52863ZM12.2424 6.32941L12.9622 7.02367L13.7346 6.22289L13.0149 5.52863L12.2952 4.83436L11.5227 5.63514L12.2424 6.32941Z" fill="#7D7D7D"/>
</svg>
