<svg width="24" height="24" viewBox="0 0 24 24" fill="none" xmlns="http://www.w3.org/2000/svg">
<path d="M12.0002 2C14.7616 2.0001 17.0002 4.23864 17.0002 7H18.6692C20.5076 7.00021 21.9135 8.63895 21.634 10.4561L20.2493 19.4561C20.0241 20.9195 18.765 21.9999 17.2844 22H6.71606C5.23537 22 3.97639 20.9195 3.75122 19.4561L2.36646 10.4561C2.08695 8.63887 3.49276 7.0001 5.3313 7H7.00024C7.00024 4.23858 9.23882 2 12.0002 2ZM5.3313 9C4.7185 9.0001 4.24983 9.54664 4.34302 10.1523L5.72778 19.1523C5.80297 19.64 6.22261 20 6.71606 20H17.2844C17.7778 19.9999 18.1975 19.64 18.2727 19.1523L19.6575 10.1523C19.7506 9.54672 19.2819 9.00021 18.6692 9H5.3313ZM8.00024 10C8.55244 10.0001 9.00024 10.4478 9.00024 11V15C9.00024 15.5522 8.55244 15.9999 8.00024 16C7.44796 16 7.00024 15.5523 7.00024 15V11C7.00024 10.4477 7.44796 10 8.00024 10ZM16.0002 10C16.5524 10.0001 17.0002 10.4478 17.0002 11V15C17.0002 15.5522 16.5524 15.9999 16.0002 16C15.448 16 15.0002 15.5523 15.0002 15V11C15.0002 10.4477 15.448 10 16.0002 10ZM12.0002 4C10.3434 4 9.00024 5.34315 9.00024 7H15.0002C15.0002 5.34321 13.657 4.0001 12.0002 4Z" fill="currentColor"/>
</svg>
